<svg width="242" height="203" viewBox="0 0 242 203" fill="none" xmlns="http://www.w3.org/2000/svg">
<path fill-rule="evenodd" clip-rule="evenodd" d="M39 0C22.4315 0 9 13.4315 9 30V158.701L0.137779 196.323C-0.744721 200.07 2.75939 203.367 6.44517 202.258L43.861 191H212C228.569 191 242 177.569 242 161V30C242 13.4315 228.569 0 212 0H39Z" fill="url(#paint0_linear_1_48)"/>
<path d="M127 23H160C176.569 23 190 34.8034 190 49.3636V67.8621C190 85.4379 175.13 92.1254 166.648 93.3943C174.967 93.8117 190 97.697 190 115.273V141.636C190 156.197 176.569 168 160 168H127C144.121 168 158 155.803 158 140.758V132.848C158 117.803 144.121 105.606 127 105.606H60V85.3939H127C144.121 85.3939 158 73.1971 158 58.1515V50.2424C158 35.1968 144.121 23 127 23Z" fill="#C6FFFF"/>
<path fill-rule="evenodd" clip-rule="evenodd" d="M90 23C73.4315 23 60 36.4315 60 53V138C60 154.569 73.4315 168 90 168H95V105.606V85.3939V23H90Z" fill="white"/>
<defs>
<linearGradient id="paint0_linear_1_48" x1="323" y1="-9.50002" x2="-139" y2="177.5" gradientUnits="userSpaceOnUse">
<stop stop-color="#3F9FF7"/>
<stop offset="1" stop-color="#2EEF58"/>
</linearGradient>
</defs>
</svg>
